<svg width="1440" height="887" viewBox="0 0 1440 887" fill="none" xmlns="http://www.w3.org/2000/svg">
<g clip-path="url(#clip0_131_1929)">
<path d="M1440 0.722534H0V886.546H1440V0.722534Z" fill="#B3F3FF"/>
<path d="M1440 194.868C1428.69 207.539 1446.58 212.064 1408.83 211.612C1371.09 211.159 1367.07 193.057 1347.43 207.539C1327.89 222.021 1311.43 224.374 1311.43 231.072C1311.43 237.679 1314.21 240.756 1311.43 246.096C1308.65 251.436 1307.31 276.87 1301.86 277.413C1296.41 278.046 1301.14 251.527 1299.09 246.639C1297.03 241.752 1294.25 285.197 1287.46 282.21C1280.57 279.223 1282.01 246.006 1281.29 232.791C1280.57 219.486 1280.57 197.854 1276.15 199.031C1271.73 200.208 1271.01 221.93 1272.45 232.158C1273.78 242.385 1271.83 249.626 1271.83 249.626C1271.83 249.626 1265.55 249.807 1265.55 238.584C1265.55 227.361 1261.44 215.051 1261.44 215.051C1261.44 215.051 1258.66 294.248 1261.44 315.427C1264.22 336.516 1258.97 355.252 1260.21 360.049C1261.44 364.846 1255.27 340.77 1255.27 323.845C1255.27 307.01 1253.93 289.541 1251.15 277.775C1248.38 266.009 1244.26 258.768 1244.26 244.286C1244.26 229.804 1236.75 218.943 1236.75 230.438C1236.75 241.933 1229.25 257.591 1229.86 270.263C1230.58 282.934 1229.86 294.338 1229.86 294.338C1229.86 294.338 1221.63 283.477 1222.35 266.642C1223.07 249.807 1221.02 222.654 1218.96 211.793C1216.9 200.932 1214.85 201.022 1213.51 215.142C1212.17 229.261 1212.79 234.149 1210.73 240.756C1208.67 247.363 1202.5 261.845 1203.22 244.377C1203.94 226.908 1202.4 217.857 1203.12 211.793C1203.84 205.729 1203.33 204.552 1202.91 192.514C1202.5 180.476 1200.45 205.186 1197.67 212.427C1194.89 219.667 1190.78 210.616 1190.78 198.578C1190.78 186.541 1182.55 160.564 1182.55 184.73C1182.55 208.897 1178.43 208.263 1178.43 218.491C1178.43 228.718 1180.49 237.769 1178.43 246.187C1176.38 254.604 1180.49 273.34 1178.43 275.15C1176.38 276.96 1168.87 256.505 1169.49 242.023C1170.21 227.542 1174.22 227.542 1169.49 210.707C1164.75 193.872 1161.67 192.424 1156.01 204.281C1150.35 216.137 1150.35 222.745 1150.35 229.442C1150.35 236.05 1148.3 240.304 1150.35 248.721C1152.41 257.139 1153.34 271.982 1149.43 267.909C1145.52 263.836 1146.24 249.355 1144.18 239.67C1142.13 229.985 1137.5 232.701 1139.35 218.581C1141.2 204.462 1144.18 194.958 1137.7 188.351C1131.22 181.744 1132.56 190.252 1131.84 199.303C1131.12 208.354 1127.01 208.354 1127.01 215.323C1127.01 222.292 1120.83 223.469 1121.55 215.323C1122.27 207.177 1123.61 198.759 1124.33 191.519C1125.05 184.278 1118.26 176.675 1119.5 173.507C1120.63 170.339 1113.43 163.823 1114.05 177.037C1114.66 190.252 1117.34 188.532 1114.05 194.505C1110.65 200.57 1114.05 200.57 1109.31 202.923C1104.48 205.367 1100.37 202.289 1102.42 192.695C1104.48 183.101 1106.54 176.766 1106.54 169.072C1106.54 161.379 1101.91 155.405 1101.91 155.405C1101.81 155.405 1089.46 170.339 1090.8 179.39C1092.14 188.441 1089.87 192.695 1090.7 195.682C1091.52 198.669 1092.86 211.34 1087.41 203.557C1081.95 195.682 1081.03 189.256 1077.12 186.088C1073.21 182.92 1070.23 175.86 1066.11 180.024C1062 184.187 1047.09 316.061 997.714 340.498C948.343 364.936 898.971 397.339 898.971 429.923C898.971 462.506 880.457 497.805 877.371 549.396C874.286 600.896 915.017 640.449 928.594 635.652C942.171 630.855 942.172 635.019 982.286 635.652C1022.4 636.286 1019.31 617.279 1056.34 617.279C1093.37 617.279 1066.63 600.987 1109.31 619.994C1152 639.001 1089.05 640.721 1198.08 644.884C1307.11 649.048 1293.84 654.659 1331.49 654.84C1369.13 655.021 1374.17 639.092 1389.7 641.807C1405.13 644.432 1440.21 645.246 1440.21 645.246V886.999H0V0.451599H1440V194.868Z" fill="#56A9C5"/>
<path d="M1440 69.0583C1354.63 68.2437 1337.45 97.207 1282.63 110.421C1227.81 123.726 1128.34 134.497 1095.43 159.206C1062.51 183.916 1070.74 203.828 1025.49 238.131C980.229 272.435 951.429 265.284 881.486 314.069C811.543 362.854 784.8 415.441 758.057 443.499C731.314 471.557 716.914 476.988 704.571 507.671C692.229 538.444 697.68 561.977 704.571 605.331C711.463 648.686 704.571 653.121 720 723.266C735.429 793.411 762.377 833.598 776.571 844.007C790.766 854.415 862.971 887.452 862.971 887.452H0V0.451599H1440V69.0583Z" fill="#4E99B7"/>
<path d="M1373.14 0.451599C1286.74 19.4587 1250.13 80.9152 1119.29 104.448C988.457 127.98 852.069 136.398 810.72 165.633C769.371 194.868 731.314 196.678 708.686 232.791C686.057 268.995 684 326.831 665.486 348.554C646.971 370.276 632.571 366.656 624.343 386.568C616.114 406.48 624.754 404.67 596.777 413.721C568.8 422.682 542.057 438.974 548.229 469.747C554.4 500.521 629.074 561.977 638.023 601.801C646.971 641.626 653.76 651.22 674.023 687.062C694.286 722.904 681.943 731.955 735.429 752.772C788.914 773.59 766.286 741.006 803.314 780.831C840.343 820.655 838.286 813.414 893.828 829.616C949.371 845.817 941.143 830.521 974.057 858.579C1006.97 886.637 1035.77 886.637 1035.77 886.637H0V0.451599H1373.14Z" fill="#428CAD"/>
<path d="M621.463 21.2689C614.057 97.7501 641.211 194.868 621.463 234.692C601.714 274.517 583.2 325.021 554.4 353.985C525.6 382.948 457.714 409.558 439.2 429.651C420.686 449.744 405.257 435.353 408.857 462.416C412.457 489.569 428.914 485.134 443.314 520.795C457.714 556.456 526.32 658.913 543.394 694.484C560.571 730.054 596.777 775.219 596.777 775.219L660.034 805.993L803.314 886.547H0V0.451599H618.171L621.463 21.2689Z" fill="#4084A7"/>
<path d="M1135.85 0.451599C1048.83 5.61068 1028.47 -5.88411 996.068 27.2426C963.771 60.4599 1002.14 37.4703 852.686 69.0583C703.234 100.646 661.371 136.941 624.343 169.525C587.314 202.108 540 212.97 521.486 250.893C502.971 288.908 481.371 301.489 467.486 328.642C453.6 355.795 421.714 375.616 401.657 397.339C381.6 419.061 350.743 417.251 340.457 443.499C330.171 469.747 352.8 502.24 354.857 538.444C356.914 574.648 413.074 590.85 416.88 625.244C420.686 659.637 433.029 746.437 502.971 777.12C572.914 807.893 597.6 816.944 706.628 834.956C815.657 852.967 906.171 815.043 991.543 840.386C1076.91 865.729 1218.86 886.456 1274.4 886.456C1329.94 886.456 0 886.456 0 886.456V0.451599H1135.85Z" fill="#3E7696"/>
<path d="M662.914 0.451599C613.131 22.9886 603.463 41.1812 570.651 75.4846C537.943 109.878 517.371 104.086 505.029 131.42C492.686 158.754 484.457 176.766 457.714 193.057C430.971 209.349 416.571 227.451 391.886 243.653C367.2 259.944 338.4 263.565 334.286 288.817C330.171 314.16 332.229 335.792 313.714 339.412C295.2 343.033 282.857 337.602 264.343 350.274C245.829 362.945 256.114 359.325 204.686 371.996C153.257 384.667 73.0286 402.226 73.0286 429.651C73.0286 457.076 79.2 464.226 114.171 496.81C149.143 529.393 169.714 511.291 196.457 545.595C223.2 579.898 291.394 630.674 324 674.029C356.606 717.383 318.034 715.482 374.709 737.295C431.383 759.199 467.486 777.12 467.486 777.12L546.171 842.197L803.314 886.547H0V0.451599H662.914Z" fill="#31688F"/>
<path d="M0 560.168C12.3429 563.788 20.5714 580.985 26.7429 572.839C32.9143 564.693 27.7714 559.263 34.9714 560.168C42.1714 561.073 47.3143 566.322 47.3143 575.011C47.3143 583.7 38.0571 587.321 47.3143 594.562C56.5714 601.802 56.5714 589.131 62.7429 602.707C68.9143 616.284 82.2857 628.955 82.2857 628.955C82.2857 628.955 90.5143 626.24 96.6857 628.955C102.857 631.671 104.914 644.614 111.086 635.472C117.257 626.331 116.229 599.721 120.343 599.449C124.457 599.178 121.063 634.115 126.206 633.481C131.349 632.847 131.657 614.202 133.406 596.734C135.154 579.265 138.549 562.068 140.914 565.689C143.28 569.309 139.166 577.455 142.663 588.859C146.057 600.354 145.029 605.694 145.029 615.379C145.029 625.063 142.663 634.658 146.057 636.739C149.451 638.821 147.394 605.966 149.451 604.789C151.509 603.613 152.846 608.138 152.846 613.569C152.846 618.999 155.211 633.481 155.211 633.481L160.046 650.678C160.046 650.678 170.64 654.57 173.109 659.095C175.474 663.621 172.491 665.703 178.56 668.78C184.629 671.857 185.966 665.069 191.931 671.495C197.897 677.921 196.354 681.18 205.303 690.502C214.251 699.825 216.309 667.332 218.674 660.996C221.04 654.66 228.24 645.609 228.651 656.199C228.96 666.789 228.343 670.047 228.651 677.921C228.96 685.796 226.286 689.054 231.429 697.2C236.571 705.346 296.331 713.13 303.84 722.452C311.349 731.775 323.691 739.106 328.526 737.296C333.36 735.486 338.091 690.321 340.56 691.226C342.926 692.132 344.983 711.682 344.674 719.556C344.366 727.43 341.691 730.689 344.674 731.051C347.76 731.322 347.76 688.511 351.874 690.321C355.989 692.132 358.046 695.48 357.017 702.721C355.989 709.962 357.326 732.59 357.326 732.59C357.326 732.59 411.429 706.342 416.983 700.639C422.537 694.937 421.817 683.171 423.566 679.551C425.314 675.93 429.737 685.886 430.046 692.494C430.354 699.101 429.737 704.169 431.383 704.079C433.131 703.988 434.469 656.923 438.274 655.113C442.08 653.303 443.109 655.113 443.109 663.259C443.109 671.405 442.8 673.215 444.446 681.361C446.091 689.507 448.251 698.829 448.251 698.829C448.251 698.829 451.029 662.987 451.029 659.91C451.029 656.923 455.143 658.1 455.143 667.422C455.143 676.745 457.509 688.511 457.509 688.511C457.509 688.511 459.566 690.593 460.286 696.385C461.006 702.088 462.034 697.019 469.543 697.291C477.051 697.562 477.463 687.334 477.463 687.334L475.714 674.663C475.714 674.663 480.137 676.745 480.137 680.365C480.137 683.986 480.857 688.783 481.474 691.86C482.091 694.937 480.137 678.555 483.223 676.202C486.309 673.848 488.057 670.5 489.394 677.378C490.731 684.348 492.171 690.05 492.171 690.05C492.171 690.05 505.543 660.543 507.6 655.113C509.657 649.682 508.32 640.631 511.406 647.238C514.491 653.846 514.491 652.398 514.491 659.91C514.491 667.422 514.491 671.405 514.491 671.405C514.491 671.405 520.354 650.949 520.663 646.424C520.971 641.898 518.606 635.563 523.029 638.549C527.451 641.536 529.2 641.174 528.891 649.049C528.583 656.923 528.891 663.259 528.891 663.259C528.891 663.259 527.863 666.608 529.612 679.189C531.36 691.86 542.674 702.359 543.703 694.847C544.731 687.334 542.366 681.542 543.703 679.189C545.04 676.745 547.817 672.853 548.846 672.853C549.874 672.853 553.989 671.676 555.017 676.473C556.046 681.27 558.823 687.606 560.16 689.145C561.497 690.683 567.36 694.575 568.697 687.968C570.034 681.361 568.389 673.486 571.783 665.069C575.177 656.652 576.206 653.574 577.234 653.031C578.263 652.398 581.349 653.031 581.657 661.449C581.966 669.866 585.051 673.848 585.771 679.551C586.491 685.253 585.051 684.981 587.829 690.683C590.606 696.385 611.794 704.26 615.909 692.494C620.023 680.727 616.629 674.392 624.446 673.848C632.263 673.305 637.817 672.038 646.046 672.943C654.274 673.848 656.023 675.025 658.697 679.279C661.474 683.533 659.726 681.723 664.149 684.981C668.571 688.33 672.069 694.666 674.126 687.425C676.183 680.184 676.183 672.038 676.183 672.038C676.183 672.038 679.577 668.418 680.297 672.038C681.017 675.659 679.989 678.374 680.297 682.899C680.606 687.425 679.989 687.697 682.663 691.95C685.44 696.204 689.143 679.551 689.143 679.551C689.143 679.551 689.451 668.689 691.509 668.689C693.566 668.689 692.846 669.323 694.594 678.917C696.343 688.602 693.257 697.291 697.68 691.588C702.103 685.886 700.457 671.676 700.457 669.594C700.457 667.513 702.823 661.72 703.234 666.246C703.543 670.771 703.234 677.378 703.234 677.378C703.234 677.378 706.32 687.968 707.04 685.253C707.76 682.537 706.32 663.259 707.04 657.828C707.76 652.398 710.126 641.717 711.463 649.049C712.8 656.38 714.549 658.19 713.52 664.435C712.491 670.681 715.886 678.646 717.943 671.948C720 665.341 718.251 650.406 724.423 648.958C730.594 647.51 727.2 654.117 727.509 661.72C727.817 669.232 729.566 657.195 731.623 651.492C733.68 645.79 740.88 632.214 741.189 637.644C741.497 643.075 742.217 647.872 741.189 652.398C740.16 656.923 742.526 662.354 743.966 668.689C745.303 675.025 741.6 679.551 748.8 680.184C756 680.818 767.314 682.266 773.794 680.456C780.274 678.645 777.909 675.297 784.389 678.645C790.869 681.994 790.251 685.615 798.48 680.727C806.709 675.93 802.903 662.625 809.074 661.177C815.246 659.729 816.583 658.19 821.109 666.336C825.531 674.482 828.617 683.171 834.789 681.089C840.96 679.008 833.04 669.323 841.68 671.405C850.217 673.486 849.909 673.848 852.994 677.74C856.08 681.632 870.48 679.279 870.48 679.279C870.48 679.279 872.537 676.564 882.103 673.848C891.669 671.133 885.497 668.418 891.669 671.133C897.84 673.848 899.897 678.102 910.183 676.835C920.469 675.568 923.554 664.797 937.646 663.892C951.737 662.987 955.44 666.608 963.669 664.526C971.897 662.444 981.874 661.177 986.606 660.272C991.44 659.367 990.411 654.57 996.583 656.018C1002.75 657.466 1007.9 659.005 1013.76 660.543C1019.62 662.082 1014.07 655.746 1019.93 653.031C1025.79 650.316 1023.74 650.044 1040.5 652.398C1057.27 654.841 1078.35 650.225 1096.77 653.936C1115.07 657.557 1111.17 650.316 1127.31 654.57C1143.46 658.824 1145.52 664.797 1158.17 664.254C1170.82 663.621 1166.09 661.811 1178.43 661.811C1190.78 661.811 1194.17 666.065 1196.64 660.272C1199.01 654.57 1195.3 650.587 1197.98 644.885C1200.75 639.183 1207.95 649.411 1210.63 654.208C1213.3 659.005 1213.41 660.272 1219.58 659.638C1225.75 659.005 1229.86 655.746 1233.26 659.005C1236.65 662.354 1250.43 667.151 1250.43 667.151C1250.43 667.151 1262.06 663.168 1269.67 661.992C1277.18 660.815 1288.49 663.53 1288.49 663.53H1301.86C1301.86 663.53 1303.61 655.837 1307.01 648.958C1310.4 642.079 1310.4 656.289 1318.63 658.1C1326.86 659.91 1319.14 651.764 1331.28 654.751C1343.42 657.738 1340.85 662.625 1350.51 662.263C1360.18 661.901 1368.93 654.841 1368.93 654.841C1368.93 654.841 1374.48 651.04 1389.6 653.212C1404.72 655.384 1408.11 645.338 1418.71 645.066C1429.3 644.795 1440 645.066 1440 645.066V886.819H0V560.168Z" fill="#153D5B"/>
<path d="M530.743 834.142C572.914 834.142 563.554 839.935 619.097 821.652C674.64 803.369 668.571 798.843 693.257 787.982C717.943 777.121 720 767.164 735.429 752.683C750.857 738.201 751.886 737.296 767.314 729.15C782.743 721.004 786.857 718.289 798.171 710.143C809.486 701.997 822.857 686.61 832.114 687.516C841.371 688.421 836.229 692.946 842.4 699.282C848.571 705.618 843.429 724.625 836.229 735.486C829.029 746.347 838.697 757.208 845.177 757.208C851.657 757.208 855.771 768.251 876.343 760.919C896.914 753.588 917.486 733.676 921.6 733.676C925.714 733.676 923.657 736.391 926.743 749.062C929.829 761.734 932.914 768.975 946.286 765.354C959.657 761.734 963.771 741.822 974.057 739.106C984.343 736.391 985.371 739.106 994.629 747.252C1003.89 755.398 983.314 766.44 1012.11 760.919C1040.91 755.398 1028.47 761.734 1045.03 749.062C1061.59 736.482 1056.34 705.618 1064.57 683.986C1072.8 662.354 1072.8 642.351 1080 641.446C1087.2 640.541 1081.85 645.971 1080 663.168C1078.15 680.365 1068.27 686.339 1077.22 696.476C1086.17 706.613 1090.29 666.789 1096.46 659.548C1102.63 652.307 1096.46 701.726 1103.66 712.858C1110.86 724.082 1101.7 729.965 1110.34 738.111C1119.09 746.347 1129.37 718.289 1138.63 713.763C1147.89 709.238 1150.97 700.368 1157.04 711.139C1163.11 721.909 1170.72 728.698 1177.71 727.34C1184.71 725.982 1183.06 717.203 1195.2 724.625C1207.34 732.047 1208.57 705.618 1208.57 696.567C1208.57 687.516 1212.69 670.319 1215.77 669.413C1218.86 668.508 1227.19 702.993 1224.93 714.216C1222.66 725.439 1209.5 725.801 1221.33 731.232C1233.15 736.663 1231.1 730.96 1245.5 732.771C1259.9 734.581 1262.98 724.534 1271.21 738.111C1279.44 751.687 1282.53 745.623 1292.81 754.403C1303.1 763.182 1323.77 767.346 1338.07 766.169C1352.37 764.992 1363.78 758.928 1369.95 767.979C1376.13 777.03 1389.5 775.22 1404.93 777.03C1420.35 778.84 1439.9 777.03 1439.9 777.03V886.457H421.714C421.714 886.457 404.743 875.958 434.263 868.355C463.783 860.752 473.143 862.924 491.657 852.063C510.171 841.383 530.743 834.142 530.743 834.142Z" fill="#1A314C"/>
<path d="M0 783.456C18.5143 772.595 30.8571 773.5 55.5429 774.405C80.2286 775.31 79.2 768.975 111.086 767.164C142.971 765.354 173.829 770.785 185.143 765.354C196.457 759.924 204.274 728.064 214.251 729.06C224.229 730.055 245.829 740.011 259.2 738.201C272.571 736.391 277.714 735.486 277.714 719.194C277.714 702.902 263.829 673.124 271.543 663.168C279.257 653.212 273.806 629.227 279.874 636.739C285.943 644.161 285.531 647.057 285.943 666.789C286.354 686.52 296.229 691.226 294.171 716.479C292.114 741.822 299.314 757.208 302.4 748.157C305.486 739.106 303.429 715.574 302.4 696.657C301.371 677.74 297.463 647.872 304.046 647.872C310.629 647.872 308.571 692.222 313.714 715.664C318.857 739.106 317.829 748.248 320.914 749.153C324 750.058 325.029 746.438 345.6 753.678C366.171 760.919 368.229 767.255 390.857 761.824C413.486 756.394 420.686 759.109 445.371 760.014C470.057 760.919 485.486 757.299 495.771 757.299C506.057 757.299 504 751.868 518.4 761.824C532.8 771.78 548.229 772.686 559.543 776.306C570.857 779.926 573.943 781.737 583.2 789.883C592.457 798.028 596.571 791.693 610.971 808.89C625.371 826.087 608.914 815.225 631.543 830.612C654.171 845.999 652.114 845.999 665.486 848.714C678.857 851.429 677.829 836.948 706.629 835.138C735.429 833.327 746.743 821.561 759.086 828.802C771.429 836.043 769.371 836.948 776.571 844.189C783.771 851.429 809.486 865.911 809.486 865.911C809.486 865.911 850.629 865.911 871.2 874.057C891.771 882.203 889.714 877.677 907.2 882.203C924.686 886.728 934.971 886.728 934.971 886.728H0V783.456Z" fill="#0E1B3C"/>
<path d="M0 797.576C18.1029 785.357 49.4743 772.324 55.1314 765.083C60.7886 757.842 51.3257 760.286 60.7886 757.842C70.2514 755.398 61.3029 746.347 76.32 746.709C91.3371 747.071 93.9086 754.584 94.32 750.692C94.7314 746.8 99.5657 724.715 105.017 727.068C110.469 729.422 100.903 754.222 107.794 754.765C114.686 755.398 112.629 754.131 120.857 748.157C129.086 742.184 129.806 736.663 130.423 729.512C131.143 722.271 131.76 695.118 134.537 695.118C137.314 695.118 135.874 739.74 138.651 739.74C141.429 739.74 146.469 728.245 160.354 727.612C174.24 727.069 180.103 718.923 182.469 711.41C184.834 703.898 199.543 623.434 205.714 621.624C211.886 619.814 204.994 642.079 205.714 660.181C206.434 678.284 208.8 701.183 208.286 716.207C207.771 731.232 216 727.068 219.394 733.676C222.789 740.283 220.731 750.511 233.074 748.157C245.417 745.714 242.023 741.55 244.08 726.435C246.137 711.41 247.474 625.788 250.251 625.788C253.029 625.788 255.703 651.13 255.703 651.13C255.703 651.13 249.531 606.509 255.703 587.23C261.874 567.952 261.874 557.724 263.211 544.419C264.549 531.114 265.269 519.71 268.046 520.886C270.823 522.063 276.274 548.582 272.88 563.698C269.486 578.722 275.04 594.471 274.011 603.522C272.983 612.573 272.674 620.357 274.114 624.611C275.554 628.865 278.331 607.776 281.109 608.319C283.886 608.953 274.937 652.307 281.109 671.043C287.28 689.688 289.337 696.386 286.56 707.247C283.783 718.108 284.811 738.563 287.794 748.248C290.777 757.932 289.337 762.096 292.114 766.893C294.891 771.69 315.36 769.337 323.589 793.412C331.817 817.488 335.211 821.109 346.217 827.173C357.223 833.237 372.96 837.4 398.263 846.451C423.566 855.502 426.343 848.262 445.474 856.136C464.606 864.01 484.149 861.295 515.314 867.631C546.48 873.966 569.417 868.264 596.16 872.428C622.903 876.682 711.977 870.075 728.331 872.428C744.686 874.781 750.96 864.463 781.714 873.876C812.469 883.289 944.743 865.821 964.594 862.743C984.446 859.756 984.446 850.072 998.126 846.451C1011.81 842.831 1028.26 804.817 1026.93 792.779C1026.41 788.253 1025.79 780.651 1025.49 772.957C1024.87 760.105 1024.97 747.071 1027.03 748.157C1030.42 749.968 1035.15 778.297 1035.15 791.602C1035.15 804.907 1031.76 805.45 1037.21 820.565C1042.66 835.681 1056.34 839.844 1059.12 829.617C1061.9 819.389 1062.1 785.448 1065.29 775.944C1068.48 766.44 1065.29 741.007 1071.46 724.082C1077.63 707.247 1075.58 674.663 1078.35 670.409C1081.13 666.155 1085.86 675.116 1085.25 698.648C1084.53 722.181 1084.53 731.866 1084.53 760.829C1084.53 789.792 1084.01 800.02 1085.25 809.071C1086.58 818.122 1090.7 825.363 1095.43 825.363C1095.43 825.363 1102.32 825.996 1104.99 813.868C1107.67 801.739 1109.11 718.017 1110.45 702.359C1111.78 686.701 1111.78 654.751 1115.28 654.117C1118.67 653.484 1113.94 679.913 1115.28 698.648C1116.62 717.384 1118.67 739.649 1120.73 733.042C1122.79 726.435 1121.45 709.51 1123.51 703.536C1125.57 697.472 1127.62 688.511 1127.62 707.79C1127.62 727.068 1123.51 737.93 1123.51 759.652C1123.51 781.375 1126.29 801.83 1127.62 807.261C1128.96 812.691 1133.79 815.135 1139.25 813.868C1144.7 812.691 1157.04 815.044 1154.98 797.576C1152.93 780.107 1148.09 755.941 1152.21 764.992C1156.32 774.043 1155.19 780.651 1155.19 780.651C1155.19 780.651 1155.7 748.7 1155.29 733.676C1154.88 718.651 1156.32 679.46 1158.99 682.447C1161.67 685.434 1161.05 754.765 1165.17 766.259C1169.28 777.754 1173.6 783.004 1173.6 783.004C1173.6 783.004 1181.62 727.702 1185.02 718.017C1188.41 708.333 1189.85 686.701 1189.85 686.701C1189.85 686.701 1198.08 658.371 1200.14 659.548C1202.19 660.725 1202.19 677.016 1202.19 683.081C1202.19 689.145 1199.42 707.79 1202.19 711.41C1204.97 715.031 1207.65 757.842 1210.42 767.436C1213.2 777.121 1215.26 784.905 1218.65 784.905C1222.05 784.905 1216.59 759.562 1218.65 752.321C1220.71 745.08 1218.24 736.663 1219.78 731.232C1221.33 725.801 1226.88 691.407 1228.22 702.902C1229.55 714.397 1231.61 717.384 1231.61 736.663C1231.61 755.941 1228.22 763.182 1232.95 767.979C1237.78 772.776 1239.12 723.991 1238.4 710.143C1237.68 696.295 1233.98 697.472 1238.61 687.878C1243.23 678.193 1241.9 678.827 1241.9 667.965C1241.9 657.104 1237.06 583.61 1239.12 582.976C1241.18 582.343 1246.63 584.786 1247.35 599.811C1248.07 614.836 1249.41 634.205 1252.8 631.761C1256.19 629.317 1254.86 617.913 1257.63 608.862C1260.41 599.811 1258.97 571.481 1261.75 561.887C1264.53 552.203 1273.37 549.85 1273.37 555.28C1273.37 560.711 1276.15 570.305 1276.15 576.369C1276.15 582.433 1274.09 657.738 1276.15 671.043C1278.21 684.348 1276.87 701.816 1276.15 720.461C1275.43 739.106 1270.7 751.778 1270.7 761.462C1270.7 771.147 1279.65 785.538 1288.49 782.551C1297.44 779.564 1304.23 759.019 1304.95 746.347C1305.67 733.676 1308.34 711.953 1313.9 709.6C1319.35 707.156 1328.91 727.702 1324.18 744.537C1319.35 761.372 1315.95 784.905 1321.41 783.728C1326.86 782.551 1331.69 752.954 1332.41 731.322C1333.13 709.6 1333.75 707.247 1338.58 687.335C1343.42 667.422 1340.64 647.51 1343.42 643.347C1346.19 639.093 1347.53 657.195 1347.53 670.5C1347.53 683.805 1345.68 689.145 1347.53 704.26C1349.38 719.375 1348.25 750.058 1363.99 754.855C1379.73 759.652 1379.01 742.817 1385.9 728.969C1392.79 715.121 1392.07 669.866 1400.3 659.638C1408.53 649.411 1407.19 620.448 1416.75 601.802C1426.32 583.157 1440.21 581.166 1440.21 581.166V886.638H0V797.576Z" fill="#0B1331"/>
<path d="M0 0.451599C0 30.32 0 118.024 0 138.751C0 159.478 0 201.113 0 216.499C0 231.886 0 251.798 0 282.481C0 313.164 0 381.952 0 389.193C0 396.434 22.5257 378.332 22.5257 366.565C22.5257 354.799 5.04 344.843 22.5257 324.026C40.0114 303.208 7.50857 280.581 22.5257 254.423C37.5429 228.266 50.0914 211.883 60.0686 178.485C70.0457 145.087 85.1657 9.50262 85.1657 9.50262C85.1657 9.50262 107.691 165.904 115.2 181.291C122.709 196.678 107.691 206.634 115.2 237.317C122.709 268.09 112.011 305.109 117.36 325.926C122.709 346.744 130.217 371.724 135.257 390.913C140.297 410.01 150.274 352.174 150.274 327.736C150.274 303.299 150.274 284.292 150.274 250.893C150.274 217.405 160.251 158.663 165.291 135.131C170.331 111.598 167.76 91.6859 177.84 70.959C187.92 50.2322 202.937 20.3638 202.937 20.3638C202.937 20.3638 210.446 120.74 220.423 138.842C230.4 156.944 202.937 170.52 220.423 190.342C237.909 210.164 242.949 265.375 247.989 268.995C253.029 272.616 232.971 193.057 247.989 175.86C263.006 158.663 280.594 152.328 275.554 127.98C270.514 103.543 257.246 71.9547 276.377 50.2322C295.509 28.5098 283.063 100.827 293.04 117.119C303.017 133.411 303.017 141.557 313.097 145.177C323.074 148.798 303.12 134.316 313.097 124.36C323.074 114.404 325.646 100.827 330.583 91.7764C335.623 82.7254 308.057 47.4264 330.583 36.6557C353.109 25.7945 368.126 67.0671 370.697 79.9196C373.166 92.772 363.189 111.689 370.697 109.878C378.206 108.068 398.263 86.3458 398.263 74.5795C398.263 62.8131 405.771 43.806 413.28 39.2805C420.789 34.755 425.829 53.7621 428.297 70.0539C430.766 86.3458 440.846 85.4407 443.314 99.0172C445.783 112.594 460.8 87.8845 460.8 79.9196C460.8 71.9547 465.84 58.3781 460.8 44.8016C455.76 31.2251 460.286 22.174 463.063 16.7434C465.84 11.3128 498.446 39.371 503.383 53.8526C508.32 68.3343 508.423 81.0057 515.931 99.9223C523.44 118.839 518.4 117.119 523.44 137.031C528.48 156.944 530.949 158.12 543.497 159.297C556.046 160.474 551.006 147.802 560.983 133.411C570.96 119.02 570.96 85.1692 576 79.9196C581.04 74.67 588.549 116.214 591.017 131.601C593.486 146.988 585.977 156.31 591.017 159.297C596.057 162.284 626.091 145.087 618.583 115.309C611.074 85.4407 608.503 85.4407 619.817 65.6189C631.131 45.7972 623.623 40.2761 631.131 34.8455C638.64 29.4149 651.189 40.2761 653.657 55.6628C656.126 71.0496 668.674 90.0567 678.754 90.9618C688.834 91.8669 688.731 64.7138 693.771 54.7577C698.811 44.8016 731.314 77.3853 723.806 89.1516C716.297 100.918 723.497 99.1077 724.937 111.779C726.377 124.451 715.989 136.217 724.937 137.122C733.886 138.027 743.863 117.21 746.331 108.159C748.8 99.1077 738.823 93.4056 746.331 80.0101C753.84 66.6146 742.114 58.4686 746.743 47.6074C751.371 36.7462 748.903 17.739 748.903 17.739C748.903 17.739 768.857 48.5125 768.857 62.9036C768.857 77.2948 756.309 80.1006 768.857 100.918C781.406 121.735 768.857 186.812 793.954 185.907C819.051 185.002 808.971 147.893 808.971 122.64C808.971 97.388 797.863 98.8362 810.926 80.0101C823.989 61.1839 821.52 24.9799 823.989 18.6441C826.457 12.3084 844.046 55.3913 844.046 80.0101C844.046 104.629 846.514 110.874 844.046 136.217C841.577 161.56 828.72 196.859 845.177 197.764C861.634 198.669 851.554 164.275 866.571 147.983C881.589 131.691 876.549 56.6584 889.097 43.0819C901.646 29.5054 916.663 10.4982 924.171 16.8339C931.68 23.1697 924.171 59.3737 924.171 59.3737C924.171 59.3737 924.171 79.286 924.171 96.4829C924.171 113.68 918.309 117.3 927.463 122.731C936.617 128.161 949.166 107.344 949.166 96.4829C949.166 85.6217 931.68 60.2788 949.166 48.603C966.651 36.8367 974.263 25.9755 989.28 13.304C1004.3 0.632619 1006.77 -2.08269 1006.77 27.7857C1006.77 57.654 991.748 58.5591 1006.77 73.8554C1021.78 89.1516 1010.57 139.385 1021.78 140.29C1033.1 141.195 1040.61 130.786 1040.61 117.21C1040.61 103.633 1038.14 81.4582 1040.61 66.6146C1043.07 51.7709 1044.41 38.5564 1046.88 34.0309C1049.35 29.5054 1066.94 62.089 1064.37 72.0452C1061.9 82.0013 1058.09 91.5049 1064.37 94.6727C1070.64 97.8406 1070.64 86.9793 1080.62 77.4758C1090.59 67.9722 1093.17 46.7023 1093.17 46.7023C1093.17 46.7023 1100.67 68.4248 1105.71 84.7166C1110.75 101.008 1117.03 111.87 1117.03 128.161C1117.03 144.453 1135.85 153.504 1137.09 173.779C1138.32 194.143 1135.85 205.91 1147.06 206.815C1158.38 207.72 1167.12 193.238 1169.59 179.662C1172.06 166.085 1192.11 164.275 1193.35 138.027C1194.58 111.779 1193.35 93.6771 1193.35 93.6771L1208.37 51.5899C1208.37 51.5899 1204.56 97.207 1210.83 114.404C1217.11 131.601 1227.09 170.882 1227.09 180.386C1227.09 189.889 1237.06 184.459 1242.1 168.62C1247.14 152.78 1243.34 133.321 1247.14 122.55C1250.95 111.689 1243.34 81.8203 1252.18 72.8598C1260.93 63.8087 1269.67 130.696 1271.01 147.893C1272.34 165.09 1276.05 164.185 1279.75 185.002C1283.55 205.819 1296 219.848 1296 219.848L1305.98 197.764C1305.98 197.764 1298.47 173.326 1307.21 156.129C1315.95 138.932 1307.21 114.042 1307.21 114.042C1307.21 114.042 1300.94 91.8669 1307.21 81.9108C1313.49 71.9547 1312.25 52.495 1317.19 49.7797C1322.23 47.0644 1330.97 170.068 1337.25 180.929C1343.52 191.79 1347.22 195.411 1347.22 207.629C1347.22 219.848 1342.18 224.374 1347.22 239.308C1352.26 254.242 1357.2 271.439 1361.01 284.02C1361.01 284.02 1348.46 292.619 1361.01 293.524C1373.55 294.429 1387.34 255.057 1387.34 237.045C1387.34 219.034 1373.55 217.586 1387.34 203.556C1401.12 189.527 1394.85 164.185 1394.85 164.185L1396.29 124.813C1396.29 124.813 1406.16 161.922 1408.63 173.598C1411.1 185.364 1409.86 193.51 1408.63 211.612C1407.39 229.714 1408.63 224.283 1408.63 243.743C1408.63 263.203 1408.63 281.305 1408.63 281.305C1408.63 281.305 1406.16 289.451 1408.63 302.122C1411.1 314.794 1408.63 333.801 1408.63 333.801C1408.63 333.801 1416.14 392.994 1416.14 403.403C1416.14 413.812 1422.41 421.958 1422.41 425.578C1422.41 429.198 1439.79 434.176 1439.79 422.863C1439.79 411.549 1439.79 0.63262 1439.79 0.63262H0V0.451599Z" fill="#112B45"/>
<path d="M769.371 0.722453C791.28 3.16623 805.989 10.407 804.446 17.5574C802.903 24.7077 803.726 39.2798 808.869 61.0023C814.011 82.7247 813.291 71.4109 814.629 63.9891C815.966 56.5673 812.674 34.4828 822.137 30.2288C831.6 25.9748 827.897 30.2288 831.6 43.5338C835.303 56.8388 839.623 67.0664 840.343 59.8256C841.063 52.5848 835.2 36.293 840.343 29.0522C845.486 21.8113 848.366 26.6084 848.366 37.1981C848.366 47.7878 851.246 44.0768 853.509 37.1981C855.771 30.3193 857.931 21.2683 868.114 20.6347C878.297 20.0011 889.303 12.7603 891.566 27.2419C893.829 41.7236 902.571 42.9002 904.731 53.7614C906.891 64.6227 910.594 79.1043 912.754 91.1422C914.914 103.18 907.611 124.269 912.754 127.889C917.897 131.51 921.497 106.8 920.777 92.9524C920.057 79.1043 921.497 63.9891 928.8 53.7614C936.103 43.5338 935.383 27.2419 940.526 22.988C945.669 18.734 951.531 19.3676 958.114 42.9002C964.697 66.4329 967.063 159.658 974.16 159.206C981.257 158.753 977.349 83.9013 982.697 66.3424C988.046 48.7834 997.509 37.3791 996.069 27.1514C994.629 16.9238 1003.37 -1.17826 1009.23 3.61878C1015.1 8.41582 1016.43 18.6435 1017.98 40.9995C1019.52 63.3555 1015.71 72.316 1017.98 83.8108C1020.24 95.3056 1028.98 82.6342 1026.82 65.7088C1024.66 48.8739 1029.7 47.6067 1034.13 29.5047C1038.55 11.4027 1044.41 -0.00162837 1048.73 5.42898C1053.05 10.8596 1056.03 21.0873 1057.47 27.6945C1058.91 34.3017 1054.59 43.3528 1057.47 53.5804C1060.35 63.8081 1066.94 63.265 1066.94 51.7702C1066.94 40.2754 1064.06 34.3017 1066.94 24.6172C1069.82 14.9326 1085.25 -3.07898 1085.25 4.7049C1085.25 12.4888 1093.89 22.8069 1093.27 37.2886C1092.65 51.7702 1092.86 71.5919 1092.96 79.8284C1093.06 88.0648 1100.57 80.0999 1100.57 63.8986C1100.57 47.6973 1107.87 37.4696 1108.59 28.1471C1109.31 18.8245 1108.59 0.360413 1108.59 0.360413L769.371 0.722453Z" fill="#0B1331"/>
<path d="M0 0.451345C0 0.451345 23.6571 117.662 23.6571 135.131C23.6571 152.599 22.32 167.714 23.6571 196.044C24.9943 224.374 28.4914 233.425 30.5486 224.374C32.6057 215.323 27.7714 188.803 30.5486 173.778C33.3257 158.754 39.4971 132.777 34.6629 118.929C29.8286 104.991 43.2 63.3559 46.8 68.2435C50.4 73.131 74.3657 157.487 73.7486 180.386C73.0286 203.285 76.5257 207.629 77.1429 227.722C77.76 247.816 79.92 232.157 81.2571 215.323C82.5943 198.488 81.9771 194.867 81.2571 179.118C80.5371 163.37 83.1086 146.806 81.2571 131.51C79.4057 116.214 85.3714 91.6856 85.3714 91.6856C85.3714 91.6856 87.4286 151.332 90.2057 168.8C92.9829 186.269 87.4286 194.686 90.2057 220.029C92.9829 245.372 92.9829 262.207 95.6572 262.207C98.3314 262.207 106.663 224.193 103.886 207.358C101.109 190.523 105.223 169.977 108.72 149.522C112.114 129.066 103.269 113.951 108.72 103.09C114.171 92.2287 115.611 75.9369 118.286 56.1151C120.96 36.2934 127.234 23.5314 129.291 23.5314C131.349 23.5314 125.177 60.2786 129.291 63.899C133.406 67.5194 138.96 52.6757 138.857 42.1766C138.754 31.6774 147.806 14.4804 147.806 14.4804C147.806 14.4804 162.926 77.204 162.926 89.7849C162.926 102.366 159.531 113.861 162.926 118.115C166.32 122.369 164.263 107.887 169.817 97.6593C175.371 87.4317 170.023 68.7866 175.269 54.2144C180.514 39.6423 179.383 28.3285 184.217 24.7081C189.051 21.0877 183.497 135.04 184.217 146.444C184.937 157.939 184.731 223.016 186.171 227.179C187.611 231.343 195.12 125.265 199.954 114.494C204.789 103.633 210.651 63.8085 217.749 42.7196C224.846 21.7212 228.754 61.9983 228.754 86.1645C228.754 110.331 236.263 123.545 234.926 142.19C233.589 160.835 233.897 171.697 235.131 172.33C236.366 172.964 240.48 166.266 240.48 158.482C240.48 150.698 244.389 126.985 243.257 118.024C242.126 109.064 250.149 83.7207 250.766 70.5062C251.486 57.2012 253.543 33.1255 256.937 39.7328C260.331 46.34 262.389 112.684 264.446 121.101C266.503 129.519 270.514 116.847 270.411 107.796C270.411 98.7454 277.406 39.7328 278.846 31.2248C278.846 31.2248 287.074 128.885 287.794 142.733C288.514 156.581 293.966 140.923 293.966 137.936C293.966 134.95 293.246 123.455 293.966 112.05C294.686 100.556 298.08 81.277 298.08 71.6829C298.08 62.0888 301.886 25.0701 301.886 25.0701C301.886 25.0701 306.309 73.4026 305.589 84.2638C304.869 95.125 302.297 124.36 305.691 131.148C309.086 137.936 309.703 85.5309 311.76 75.8464C313.817 66.1618 311.246 49.8699 313.817 37.289C316.389 24.7081 318.651 8.9593 318.651 8.9593C318.651 8.9593 324.309 58.7399 326.983 68.515C329.657 78.2901 331.714 89.7849 333.771 84.3543C335.829 78.9237 334.491 76.4799 338.606 57.8348C342.72 39.1897 338.606 22.2643 338.606 22.2643C338.606 22.2643 353.726 31.3153 355.063 49.9604C356.4 68.6055 355.783 81.9105 359.897 80.7339C364.011 79.5573 360.617 49.4174 366.069 40.9094C371.52 32.492 375.017 15.295 375.017 7.78267C375.017 0.270325 375.017 0.270325 375.017 0.270325H0V0.451345Z" fill="#0B1331"/>
<path d="M0 0.451345V271.982C0 271.982 7.92 271.982 6.48 262.297C5.04 252.613 17.4857 56.8392 17.4857 56.8392C17.4857 56.8392 25.7143 105.624 29.8286 105.081C33.9429 104.538 46.2857 54.4859 46.2857 54.4859C46.2857 54.4859 54.5143 288.998 58.6286 288.998C62.7429 288.998 70.9714 51.4086 70.9714 51.4086C70.9714 51.4086 72.3086 131.601 76.4229 130.967C80.5371 130.333 81.8743 55.029 85.9886 51.4086C90.1029 47.7882 104.503 28.5095 114.069 24.2555C123.634 20.0015 128.469 36.927 134.64 35.1167C140.811 33.3065 147.703 14.6614 147.703 14.6614C147.703 14.6614 157.989 65.2566 163.44 67.7004C168.891 70.1442 178.56 10.4075 178.56 10.4075C178.56 10.4075 192.24 231.614 195.017 264.198C197.794 296.782 201.189 346.2 205.303 346.2C209.417 346.2 219.086 173.145 219.086 159.297C219.086 145.449 225.257 12.2177 225.257 12.2177C225.257 12.2177 233.486 62.8129 236.263 76.1179C239.04 89.4229 243.771 118.296 245.211 138.841C246.549 159.297 250.046 186.45 253.44 186.45C256.834 186.45 260.949 79.7383 265.063 61.0932C269.177 42.4481 271.234 14.1184 271.234 14.1184C271.234 14.1184 269.177 117.753 271.234 134.678C273.291 151.603 273.291 167.805 277.406 169.072C281.52 170.248 287.691 107.615 289.749 92.5002C291.806 77.385 299.314 14.1184 299.314 14.1184C299.314 14.1184 304.766 36.3839 303.429 43.6247C302.091 50.8655 305.486 62.2698 307.543 63.5369C309.6 64.7136 310.937 44.2583 313.714 37.651C316.491 31.0438 316.491 21.3592 316.491 21.3592C316.491 21.3592 317.829 58.7399 316.491 71.4113C315.154 84.0828 320.606 126.261 322.663 128.704C324.72 131.148 324 75.6653 328.114 62.3603C332.229 49.0553 334.286 12.3082 334.286 12.3082C334.286 12.3082 337.68 35.8408 342.514 39.4612C347.349 43.0816 352.08 37.0175 352.08 26.1562C352.08 15.295 355.474 4.43379 355.474 4.43379C355.474 4.43379 358.251 31.5869 360.309 33.9401C362.366 36.2934 368.537 0.451345 368.537 0.451345H383.657C383.657 0.451345 379.543 21.8118 383.657 33.9401C387.771 46.0685 382.937 82.7251 383.657 94.8535C384.377 106.982 389.109 138.841 393.943 159.387C398.777 179.933 401.451 246.82 403.509 247.363C405.566 247.906 406.903 217.857 411.737 199.121C416.571 180.476 420.686 151.513 416.571 120.739C412.457 89.9659 410.4 52.0422 414.514 41.8145C418.629 31.5869 421.406 12.8512 421.406 12.8512C421.406 12.8512 441.977 20.7256 441.977 28.5095C441.977 36.2934 446.811 27.8759 448.149 20.0921C449.486 12.2177 452.983 6.244 452.983 6.244C452.983 6.244 454.32 20.0921 455.76 29.1431C457.2 38.1941 465.326 29.7766 465.326 21.9023C465.326 14.0279 469.44 6.244 469.44 6.244L476.126 1.26594H902.057C902.057 1.26594 899.28 17.6483 902.057 29.7767C904.834 41.905 904.834 47.2451 904.834 58.1063C904.834 68.9676 904.834 79.8288 908.229 79.1952C911.623 78.5616 913.063 54.4859 915.12 53.8524C917.177 53.2188 919.234 71.3208 922.629 74.3077C926.023 77.2945 924.686 95.3965 929.52 96.0301C934.354 96.6637 930.24 71.9544 935.691 72.4975C941.143 73.131 941.143 96.5732 942.583 104.448C943.92 112.322 947.417 124.36 947.417 124.36C947.417 124.36 944.023 89.4229 947.417 82.7251C950.811 76.1179 950.194 59.826 950.194 59.826C950.194 59.826 955.029 78.4711 957.086 79.1047C959.143 79.7383 963.977 60.4596 963.977 60.4596C963.977 60.4596 966.754 108.702 967.371 118.296C968.091 127.98 963.257 144.815 967.371 144.815C971.486 144.815 974.263 116.485 976.937 125.536C979.714 134.587 981.771 163.641 981.771 173.235C981.771 182.829 981.051 182.829 985.166 179.209C989.28 175.589 981.771 146.082 988.56 155.133C995.349 164.184 990.617 192.514 994.731 192.514C998.846 192.514 1000.9 160.564 1000.9 147.892C1000.9 135.221 1006.35 62.2698 1006.35 62.2698C1006.35 62.2698 1002.96 127.347 1006.35 136.398C1009.75 145.449 1015.51 159.93 1015.71 165.361C1015.92 170.792 1012.11 182.829 1015.71 184.006C1019.31 185.183 1021.37 169.524 1018.7 153.233C1015.92 136.941 1019.93 118.296 1019.93 118.296C1019.93 118.296 1020.75 139.384 1024.87 138.751C1028.98 138.117 1031.04 51.3181 1031.04 51.3181C1031.04 51.3181 1032.38 159.84 1036.49 159.84C1040.61 159.84 1040.61 80.9149 1041.94 70.5967C1043.28 60.2786 1059.12 1.08492 1059.12 1.08492L1103.66 0.360835C1103.66 0.360835 1107.77 50.6845 1109.11 62.1793C1110.45 73.6741 1104.99 83.9017 1109.11 84.4448C1113.22 84.9879 1118.67 45.2539 1118.67 45.2539C1118.67 45.2539 1120.01 146.535 1118.67 154.319C1117.34 162.193 1115.07 173.145 1119.29 173.054C1123.51 172.964 1135.85 0.270325 1135.85 0.270325C1135.85 0.270325 1137.91 63.2654 1142.74 61.4552C1147.58 59.645 1153.03 11.4031 1153.03 11.4031C1153.03 11.4031 1155.81 57.2012 1163.31 57.2012C1170.82 57.2012 1171.54 20.4541 1171.54 20.4541C1171.54 20.4541 1174.32 63.2654 1178.43 63.2654C1182.55 63.2654 1183.27 52.4042 1183.27 49.4174C1183.27 46.4305 1188.72 13.8469 1188.72 13.8469C1188.72 13.8469 1195.61 59.0114 1199.73 59.645C1203.84 60.2786 1209.29 48.1502 1209.29 48.1502C1209.29 48.1502 1209.29 82.5441 1213.41 88.5178C1217.52 94.4914 1222.97 124.722 1227.81 123.455C1232.64 122.278 1227.81 89.6944 1227.81 89.6944C1227.81 89.6944 1232.64 101.189 1236.03 99.379C1239.43 97.5688 1231.92 75.3033 1236.03 68.6055C1240.15 61.9983 1251.15 52.3137 1253.21 62.5413C1255.27 72.769 1252.49 90.871 1253.21 99.2885C1253.93 107.706 1254.55 146.897 1258.05 145.087C1261.44 143.276 1255.99 111.96 1258.05 103.452C1260.1 94.944 1263.5 95.5776 1264.22 98.6549C1264.94 101.642 1271.11 157.758 1271.11 169.796C1271.11 181.834 1266.99 187.898 1271.11 187.264C1275.22 186.631 1276.56 126.351 1276.56 114.947C1276.56 103.542 1280.67 108.883 1282.73 110.15C1284.79 111.326 1279.95 71.5924 1286.85 74.5792C1293.74 77.566 1286.85 104.086 1291.68 115.58C1296.51 127.075 1306.08 164.365 1303.3 176.494C1300.53 188.622 1298.06 220.482 1303.82 221.658C1309.47 222.835 1304.02 196.315 1309.47 199.936C1314.93 203.556 1314.62 211.069 1315.34 227.089C1316.06 243.019 1318.73 279.494 1320.48 290.718C1322.23 301.85 1318.42 308.186 1320.48 314.522C1322.54 320.857 1326.96 326.288 1326.96 331.99C1326.96 337.692 1331.07 343.757 1331.07 348.554C1331.07 353.351 1331.38 356.428 1331.07 365.751C1330.77 375.073 1331.38 383.853 1332.82 389.555C1334.16 395.257 1331.79 414.535 1336.63 413.63C1341.46 412.725 1341.46 405.484 1341.05 398.244C1340.74 391.003 1338.27 381.68 1338.99 372.358C1339.71 363.035 1342.39 351.54 1341.15 345.567C1340.02 339.503 1340.85 329.908 1341.46 322.668C1342.08 315.427 1341.57 316.603 1341.46 304.023C1341.36 291.351 1344.14 285.921 1346.5 280.852C1348.87 275.783 1355.45 268.814 1355.45 262.478C1355.45 256.143 1355.45 248.63 1355.45 248.63C1355.45 248.63 1365.74 271.258 1362.34 287.55C1358.95 303.842 1361.01 318.866 1363.06 326.469C1365.12 333.981 1363.78 340.046 1365.43 350.907C1367.18 361.768 1367.79 371.996 1368.21 378.603C1368.51 385.21 1371.29 384.939 1373.35 383.128C1375.41 381.318 1375.1 355.704 1376.74 348.735C1378.49 341.765 1379.83 326.741 1379.83 326.741C1379.83 326.741 1377.77 360.772 1379.83 371.634C1381.89 382.495 1386.31 388.831 1383.22 393.899C1380.14 398.968 1388.06 401.23 1387.34 413.811C1386.62 426.483 1384.25 431.28 1385.59 445.762C1386.93 460.243 1387.34 463.501 1387.34 473.458C1387.34 483.414 1394.13 495.723 1391.04 510.567C1387.95 525.32 1388.37 540.707 1387.34 550.663C1386.31 560.619 1379.11 560.347 1380.45 574.739C1381.78 589.22 1381.78 592.479 1381.78 600.987C1381.78 609.404 1389.29 617.278 1384.15 621.442C1379.01 625.605 1368 622.981 1368 631.669C1368 640.358 1373.86 651.22 1364.91 661.538C1355.97 671.856 1353.91 689.596 1353.91 694.665C1353.91 699.733 1350.82 709.689 1350.82 725.438C1350.82 741.096 1351.13 753.768 1351.85 760.375C1352.57 766.982 1358.74 801.376 1345.37 812.237C1332 823.099 1318.63 833.055 1306.29 832.15C1293.94 831.244 1276.46 824.909 1264.11 826.719C1251.77 828.529 1251.77 814.048 1224 815.858C1196.23 817.668 1190.06 789.61 1192.11 772.413C1194.17 755.216 1199.31 767.887 1190.06 742.544C1180.8 717.202 1179.77 704.53 1182.86 681.088C1185.94 657.646 1181.83 626.872 1181.83 626.872C1181.83 626.872 1168.46 703.716 1169.49 714.577C1170.51 725.438 1167.43 727.248 1169.49 745.35C1171.54 763.452 1180.8 780.649 1170.51 799.566C1160.23 818.483 1155.09 828.62 1131.43 832.15C1107.77 835.679 1096.46 842.196 1084.11 832.15C1071.77 822.103 1077.94 812.237 1073.83 784.179C1069.71 756.121 1061.49 754.311 1061.49 731.774C1061.49 709.146 1064.57 683.894 1064.57 683.894C1064.57 683.894 1050.17 724.623 1051.2 738.109C1052.23 751.686 1048.11 754.401 1052.23 778.839C1056.34 803.277 1026.51 853.872 1020.34 852.967C1014.17 852.062 1021.27 828.529 1015.71 814.953C1010.06 801.376 1006.97 764.357 1003.89 765.263C1000.8 766.168 1001.83 830.339 991.543 840.295C981.257 850.252 956.571 849.346 949.371 845.726C942.172 842.106 951.429 773.408 945.257 773.408C939.086 773.408 936 792.416 932.914 809.612C929.829 826.809 933.943 839.481 918.514 846.722C903.086 853.963 882.514 849.437 861.943 857.583C841.371 865.729 839.314 868.444 809.486 865.729C779.657 863.013 748.8 868.444 745.714 872.065C742.629 875.685 752.914 873.875 733.371 876.59C713.829 879.305 708.686 886.546 701.486 886.546C694.286 886.546 676.8 882.021 664.457 882.021C652.114 882.021 652.114 886.546 639.771 886.546C627.429 886.546 568.8 873.875 547.2 873.875C525.6 873.875 509.143 879.305 484.457 878.4C459.771 877.495 469.029 877.495 446.4 872.065C423.771 866.634 413.486 856.678 406.286 863.013C399.086 869.349 391.886 866.634 376.457 871.159C361.029 875.685 341.486 871.159 316.8 867.539C292.114 863.919 291.086 867.539 266.4 861.203C241.714 854.868 247.886 859.393 232.457 850.342C217.029 841.291 232.457 844.006 237.6 835.86C242.743 827.715 248.914 817.758 242.743 816.853C236.571 815.948 235.543 809.612 237.6 806.897C239.657 804.182 218.057 793.321 208.8 786.985C199.543 780.649 200.571 707.426 198.514 683.894C196.457 660.361 194.4 622.437 190.286 622.437C186.171 622.437 183.086 684.799 185.143 703.806C187.2 722.813 192.343 746.346 185.143 765.263C177.943 784.27 187.2 799.656 178.971 800.561C170.743 801.467 164.571 804.182 162.514 777.934C160.457 751.686 161.486 726.434 159.429 712.857C157.371 699.281 156.343 672.128 153.257 671.222C150.171 670.317 156.343 719.102 153.257 729.058C150.171 739.015 151.2 758.022 151.2 765.263C151.2 772.503 151.2 781.554 142.971 789.7C134.743 797.846 130.629 785.175 115.2 786.08C99.7714 786.985 91.5429 787.89 93.6 760.737C95.6572 733.584 99.7714 720.912 92.5714 695.66C85.3714 670.317 89.4857 662.171 85.3714 637.824C81.2571 613.477 82.2857 634.204 81.2571 661.357C80.2286 688.51 79.2 733.674 77.1429 742.725C75.0857 751.776 75.0857 770.784 75.0857 790.605C75.0857 810.427 66.8571 816.853 63.7714 814.138C60.6857 811.423 62.7429 770.693 59.6571 741.82C56.5714 712.857 48.3429 698.375 49.3714 675.838C50.4 653.211 58.6286 619.813 53.4857 614.382C48.3429 608.951 49.3714 636.104 47.3143 640.63C45.2571 645.155 34.9714 638.82 34.9714 626.148C34.9714 613.477 38.0571 611.667 38.0571 590.849C38.0571 570.032 30.8571 564.601 29.8286 598.09C28.8 631.579 20.5714 640.63 17.4857 639.725C14.4 638.82 26.7429 595.375 16.4571 583.699C6.17143 572.023 0 560.166 0 560.166V886.546H1440V0.451345H0Z" fill="#0B0F24"/>
<path d="M408.857 0.722712C422.537 1.17526 428.091 12.7606 426.034 48.3311C423.977 83.9016 427.577 99.5598 426.446 109.787C425.314 120.015 421.097 136.941 426.651 136.941C432.206 136.941 432.823 77.8374 434.263 68.7864C435.703 59.7354 441.771 50.1413 441.771 35.6596C441.771 21.178 455.451 10.3168 458.229 24.1649C461.006 38.0129 465.737 60.3689 469.234 57.2916C472.731 54.2142 470.571 22.8977 475.406 24.1649C480.24 25.432 477.463 78.3805 480.857 77.2038C484.251 76.0272 484.251 53.6712 488.366 59.7354C492.48 65.7995 483.531 104.9 491.143 105.534C498.651 106.167 495.257 10.3168 501.429 5.42924C507.6 0.541692 513.771 31.3152 513.051 51.861C512.331 72.3163 506.983 103.09 513.154 103.09C519.326 103.09 519.223 53.6712 522.72 39.1895C526.217 24.7079 536.4 1.80883 539.177 10.8599C541.954 19.9109 552.857 51.861 552.857 68.6959C552.857 85.5308 554.194 104.9 555.634 110.874C556.971 116.938 561.806 32.4918 563.863 27.6947C565.92 22.8977 571.371 53.5807 570.754 75.3031C570.034 97.0256 576.206 118.748 580.32 116.304C584.434 113.86 576.926 53.0376 587.211 36.7458C597.497 20.4539 612.617 12.0365 613.954 24.0743C615.291 36.1122 614.674 44.5296 618.789 43.9866C622.903 43.353 617.451 31.9487 621.566 21.0875C625.68 10.2263 627.737 0.632202 639.771 0.632202C651.806 0.632202 651.086 43.4435 653.863 51.861C656.64 60.2784 651.806 86.7979 657.977 89.2417C664.149 91.6855 660.034 51.861 661.371 39.1895C662.709 26.5181 666.823 12.6701 673.714 15.1138C680.606 17.5576 680.606 22.3546 686.777 36.8363C692.949 51.3179 701.177 59.7354 697.063 68.7864C692.949 77.8374 699.12 106.801 701.177 115.761C703.234 124.722 703.234 81.3673 706.629 68.7864C710.023 56.115 712.08 47.0639 711.463 37.4698C710.743 27.7853 723.086 8.50659 725.863 22.4452C728.64 36.2932 723.806 47.1544 725.863 60.4594C727.92 73.7644 726.583 82.725 729.977 83.9921C733.371 85.1687 731.314 42.991 736.869 35.2071C742.423 27.4232 753.326 20.7255 756.72 32.7633C760.114 44.8012 771.12 61.7266 767.006 76.2082C762.892 90.6898 761.966 131.057 767.931 137.122C773.897 143.186 771.12 77.4753 775.954 68.9674C780.789 60.4594 778.011 50.3223 782.846 38.8275C787.68 27.3327 782.846 0.813223 782.846 0.813223H408.857V0.722712Z" fill="#0B1331"/>
</g>
<defs>
<clipPath id="clip0_131_1929">
<rect width="1440" height="887" fill="white"/>
</clipPath>
</defs>
</svg>
